{"accessors":[{"bufferView":0,"componentType":5126,"count":208,"min":[-1.5810353755950928,-5.3995350413060809e-9,-1.131492018699646],"max":[1.6621503829956055,2.9452853202819826,1.131492018699646],"type":"VEC3","name":"Occluder_vertices#0_POSITION"},{"bufferView":0,"byteOffset":12,"componentType":5120,"count":208,"type":"VEC4","name":"Occluder_vertices#0_TANGENT"},{"bufferView":0,"byteOffset":16,"componentType":5120,"count":208,"type":"VEC4","name":"Occluder_vertices#0_NORMAL"},{"bufferView":0,"byteOffset":20,"componentType":5122,"count":208,"type":"VEC2","name":"Occluder_vertices#0_TEXCOORD_0"},{"bufferView":0,"byteOffset":24,"componentType":5122,"count":208,"type":"VEC2","name":"Occluder_vertices#0_TEXCOORD_1"},{"bufferView":0,"byteOffset":28,"componentType":5123,"count":208,"type":"VEC4","name":"Occluder_vertices#0_COLOR_0"},{"bufferView":1,"componentType":5123,"count":282,"type":"SCALAR","name":"Occluder_indices#0"},{"bufferView":0,"byteOffset":7488,"componentType":5126,"count":1821,"min":[29.81432342529297,1052.6015625,-190.1486358642578],"max":[84.52381896972656,1108.7091064453126,-121.11197662353516],"type":"VEC3","name":"x3_SeatBelt_L_Pilot_F_vertices#0_POSITION"},{"bufferView":0,"byteOffset":7500,"componentType":5120,"count":1821,"type":"VEC4","name":"x3_SeatBelt_L_Pilot_F_vertices#0_TANGENT"},{"bufferView":0,"byteOffset":7504,"componentType":5120,"count":1821,"type":"VEC4","name":"x3_SeatBelt_L_Pilot_F_vertices#0_NORMAL"},{"bufferView":0,"byteOffset":7508,"componentType":5122,"count":1821,"type":"VEC2","name":"x3_SeatBelt_L_Pilot_F_vertices#0_TEXCOORD_0"},{"bufferView":0,"byteOffset":7512,"componentType":5122,"count":1821,"type":"VEC2","name":"x3_SeatBelt_L_Pilot_F_vertices#0_TEXCOORD_1"},{"bufferView":0,"byteOffset":7516,"componentType":5123,"count":1821,"type":"VEC4","name":"x3_SeatBelt_L_Pilot_F_vertices#0_COLOR_0"},{"bufferView":1,"byteOffset":564,"componentType":5123,"count":2055,"type":"SCALAR","name":"x3_SeatBelt_L_Pilot_F_indices#0"},{"bufferView":0,"byteOffset":73044,"componentType":5126,"count":1715,"min":[29.82569122314453,1052.6015625,-197.7205047607422],"max":[84.75947570800781,1109.786376953125,-121.11197662353516],"type":"VEC3","name":"x3_SeatBelt_L_Pilot_M_vertices#0_POSITION"},{"bufferView":0,"byteOffset":73056,"componentType":5120,"count":1715,"type":"VEC4","name":"x3_SeatBelt_L_Pilot_M_vertices#0_TANGENT"},{"bufferView":0,"byteOffset":73060,"componentType":5120,"count":1715,"type":"VEC4","name":"x3_SeatBelt_L_Pilot_M_vertices#0_NORMAL"},{"bufferView":0,"byteOffset":73064,"componentType":5122,"count":1715,"type":"VEC2","name":"x3_SeatBelt_L_Pilot_M_vertices#0_TEXCOORD_0"},{"bufferView":0,"byteOffset":73068,"componentType":5122,"count":1715,"type":"VEC2","name":"x3_SeatBelt_L_Pilot_M_vertices#0_TEXCOORD_1"},{"bufferView":0,"byteOffset":73072,"componentType":5123,"count":1715,"type":"VEC4","name":"x3_SeatBelt_L_Pilot_M_vertices#0_COLOR_0"},{"bufferView":1,"byteOffset":4674,"componentType":5123,"count":1911,"type":"SCALAR","name":"x3_SeatBelt_L_Pilot_M_indices#0"},{"bufferView":0,"byteOffset":134784,"componentType":5126,"count":1821,"min":[-84.52381896972656,1052.6015625,-190.1486358642578],"max":[-29.81432342529297,1108.7091064453126,-121.11197662353516],"type":"VEC3","name":"x3_SeatBelt_R_Pilot_F_vertices#0_POSITION"},{"bufferView":0,"byteOffset":134796,"componentType":5120,"count":1821,"type":"VEC4","name":"x3_SeatBelt_R_Pilot_F_vertices#0_TANGENT"},{"bufferView":0,"byteOffset":134800,"componentType":5120,"count":1821,"type":"VEC4","name":"x3_SeatBelt_R_Pilot_F_vertices#0_NORMAL"},{"bufferView":0,"byteOffset":134804,"componentType":5122,"count":1821,"type":"VEC2","name":"x3_SeatBelt_R_Pilot_F_vertices#0_TEXCOORD_0"},{"bufferView":0,"byteOffset":134808,"componentType":5122,"count":1821,"type":"VEC2","name":"x3_SeatBelt_R_Pilot_F_vertices#0_TEXCOORD_1"},{"bufferView":0,"byteOffset":134812,"componentType":5123,"count":1821,"type":"VEC4","name":"x3_SeatBelt_R_Pilot_F_vertices#0_COLOR_0"},{"bufferView":1,"byteOffset":8496,"componentType":5123,"count":2055,"type":"SCALAR","name":"x3_SeatBelt_R_Pilot_F_indices#0"},{"bufferView":0,"byteOffset":200340,"componentType":5126,"count":1715,"min":[-84.75947570800781,1052.6015625,-197.7205047607422],"max":[-29.82569122314453,1109.786376953125,-121.11197662353516],"type":"VEC3","name":"x3_SeatBelt_R_Pilot_M_vertices#0_POSITION"},{"bufferView":0,"byteOffset":200352,"componentType":5120,"count":1715,"type":"VEC4","name":"x3_SeatBelt_R_Pilot_M_vertices#0_TANGENT"},{"bufferView":0,"byteOffset":200356,"componentType":5120,"count":1715,"type":"VEC4","name":"x3_SeatBelt_R_Pilot_M_vertices#0_NORMAL"},{"bufferView":0,"byteOffset":200360,"componentType":5122,"count":1715,"type":"VEC2","name":"x3_SeatBelt_R_Pilot_M_vertices#0_TEXCOORD_0"},{"bufferView":0,"byteOffset":200364,"componentType":5122,"count":1715,"type":"VEC2","name":"x3_SeatBelt_R_Pilot_M_vertices#0_TEXCOORD_1"},{"bufferView":0,"byteOffset":200368,"componentType":5123,"count":1715,"type":"VEC4","name":"x3_SeatBelt_R_Pilot_M_vertices#0_COLOR_0"},{"bufferView":1,"byteOffset":12606,"componentType":5123,"count":1911,"type":"SCALAR","name":"x3_SeatBelt_R_Pilot_M_indices#0"},{"bufferView":0,"byteOffset":262080,"componentType":5126,"count":26564,"min":[-1.56891930103302,-1.1472628116607667,-2.412116050720215],"max":[1.525709867477417,1.10568368434906,0.4123344421386719],"type":"VEC3","name":"x3_COCKPIT_vertices#0_POSITION"},{"bufferView":0,"byteOffset":262092,"componentType":5120,"count":26564,"type":"VEC4","name":"x3_COCKPIT_vertices#0_TANGENT"},{"bufferView":0,"byteOffset":262096,"componentType":5120,"count":26564,"type":"VEC4","name":"x3_COCKPIT_vertices#0_NORMAL"},{"bufferView":0,"byteOffset":262100,"componentType":5122,"count":26564,"type":"VEC2","name":"x3_COCKPIT_vertices#0_TEXCOORD_0"},{"bufferView":0,"byteOffset":262104,"componentType":5122,"count":26564,"type":"VEC2","name":"x3_COCKPIT_vertices#0_TEXCOORD_1"},{"bufferView":0,"byteOffset":262108,"componentType":5123,"count":26564,"type":"VEC4","name":"x3_COCKPIT_vertices#0_COLOR_0"},{"bufferView":1,"byteOffset":16428,"componentType":5123,"count":61155,"type":"SCALAR","name":"x3_COCKPIT_indices#0"},{"bufferView":0,"byteOffset":1218384,"componentType":5126,"count":50,"min":[-0.29300832748413088,-0.025892972946166993,0.428131103515625],"max":[0.2930082678794861,0.004877328872680664,0.43523406982421877],"type":"VEC3","name":"x3_SCREEN_AUTOPILOT_vertices#0_POSITION"},{"bufferView":0,"byteOffset":1218396,"componentType":5120,"count":50,"type":"VEC4","name":"x3_SCREEN_AUTOPILOT_vertices#0_TANGENT"},{"bufferView":0,"byteOffset":1218400,"componentType":5120,"count":50,"type":"VEC4","name":"x3_SCREEN_AUTOPILOT_vertices#0_NORMAL"},{"bufferView":0,"byteOffset":1218404,"componentType":5122,"count":50,"type":"VEC2","name":"x3_SCREEN_AUTOPILOT_vertices#0_TEXCOORD_0"},{"bufferView":0,"byteOffset":1218408,"componentType":5122,"count":50,"type":"VEC2","name":"x3_SCREEN_AUTOPILOT_vertices#0_TEXCOORD_1"},{"bufferView":0,"byteOffset":1218412,"componentType":5123,"count":50,"type":"VEC4","name":"x3_SCREEN_AUTOPILOT_vertices#0_COLOR_0"},{"bufferView":1,"byteOffset":138738,"componentType":5123,"count":132,"type":"SCALAR","name":"x3_SCREEN_AUTOPILOT_indices#0"},{"bufferView":0,"byteOffset":1220184,"componentType":5126,"count":4,"min":[-0.04843716323375702,-0.03564190864562988,-0.010433197021484375],"max":[0.04843716323375702,0.03564190864562988,0.010433197021484375],"type":"VEC3","name":"x3_SCREEN_COM_L_vertices#0_POSITION"},{"bufferView":0,"byteOffset":1220196,"componentType":5120,"count":4,"type":"VEC4","name":"x3_SCREEN_COM_L_vertices#0_TANGENT"},{"bufferView":0,"byteOffset":1220200,"componentType":5120,"count":4,"type":"VEC4","name":"x3_SCREEN_COM_L_vertices#0_NORMAL"},{"bufferView":0,"byteOffset":1220204,"componentType":5122,"count":4,"type":"VEC2","name":"x3_SCREEN_COM_L_vertices#0_TEXCOORD_0"},{"bufferView":0,"byteOffset":1220208,"componentType":5122,"count":4,"type":"VEC2","name":"x3_SCREEN_COM_L_vertices#0_TEXCOORD_1"},{"bufferView":0,"byteOffset":1220212,"componentType":5123,"count":4,"type":"VEC4","name":"x3_SCREEN_COM_L_vertices#0_COLOR_0"},{"bufferView":1,"byteOffset":139002,"componentType":5123,"count":6,"type":"SCALAR","name":"x3_SCREEN_COM_L_indices#0"},{"bufferView":0,"byteOffset":1220328,"componentType":5126,"count":4,"min":[-0.048437148332595828,-0.03564190864562988,-0.010433197021484375],"max":[0.04843716323375702,0.03564190864562988,0.010433197021484375],"type":"VEC3","name":"x3_SCREEN_COM_R_vertices#0_POSITION"},{"bufferView":0,"byteOffset":1220340,"componentType":5120,"count":4,"type":"VEC4","name":"x3_SCREEN_COM_R_vertices#0_TANGENT"},{"bufferView":0,"byteOffset":1220344,"componentType":5120,"count":4,"type":"VEC4","name":"x3_SCREEN_COM_R_vertices#0_NORMAL"},{"bufferView":0,"byteOffset":1220348,"componentType":5122,"count":4,"type":"VEC2","name":"x3_SCREEN_COM_R_vertices#0_TEXCOORD_0"},{"bufferView":0,"byteOffset":1220352,"componentType":5122,"count":4,"type":"VEC2","name":"x3_SCREEN_COM_R_vertices#0_TEXCOORD_1"},{"bufferView":0,"byteOffset":1220356,"componentType":5123,"count":4,"type":"VEC4","name":"x3_SCREEN_COM_R_vertices#0_COLOR_0"},{"bufferView":1,"byteOffset":139014,"componentType":5123,"count":6,"type":"SCALAR","name":"x3_SCREEN_COM_R_indices#0"},{"bufferView":0,"byteOffset":1220472,"componentType":5126,"count":4,"min":[-0.09292063117027283,-0.08646500110626221,-0.0254364013671875],"max":[0.09292063117027283,0.08646512031555176,0.0254364013671875],"type":"VEC3","name":"x3_SCREEN_EICAS_vertices#0_POSITION"},{"bufferView":0,"byteOffset":1220484,"componentType":5120,"count":4,"type":"VEC4","name":"x3_SCREEN_EICAS_vertices#0_TANGENT"},{"bufferView":0,"byteOffset":1220488,"componentType":5120,"count":4,"type":"VEC4","name":"x3_SCREEN_EICAS_vertices#0_NORMAL"},{"bufferView":0,"byteOffset":1220492,"componentType":5122,"count":4,"type":"VEC2","name":"x3_SCREEN_EICAS_vertices#0_TEXCOORD_0"},{"bufferView":0,"byteOffset":1220496,"componentType":5122,"count":4,"type":"VEC2","name":"x3_SCREEN_EICAS_vertices#0_TEXCOORD_1"},{"bufferView":0,"byteOffset":1220500,"componentType":5123,"count":4,"type":"VEC4","name":"x3_SCREEN_EICAS_vertices#0_COLOR_0"},{"bufferView":1,"byteOffset":139026,"componentType":5123,"count":6,"type":"SCALAR","name":"x3_SCREEN_EICAS_indices#0"},{"bufferView":0,"byteOffset":1220616,"componentType":5126,"count":4,"min":[-0.09278365969657898,-0.08424854278564453,-0.024705886840820314],"max":[0.09278365969657898,0.08424866199493408,0.0247039794921875],"type":"VEC3","name":"x3_SCREEN_EICAS_vertices#0_POSITION"},{"bufferView":0,"byteOffset":1220628,"componentType":5120,"count":4,"type":"VEC4","name":"x3_SCREEN_EICAS_vertices#0_TANGENT"},{"bufferView":0,"byteOffset":1220632,"componentType":5120,"count":4,"type":"VEC4","name":"x3_SCREEN_EICAS_vertices#0_NORMAL"},{"bufferView":0,"byteOffset":1220636,"componentType":5122,"count":4,"type":"VEC2","name":"x3_SCREEN_EICAS_vertices#0_TEXCOORD_0"},{"bufferView":0,"byteOffset":1220640,"componentType":5122,"count":4,"type":"VEC2","name":"x3_SCREEN_EICAS_vertices#0_TEXCOORD_1"},{"bufferView":0,"byteOffset":1220644,"componentType":5123,"count":4,"type":"VEC4","name":"x3_SCREEN_EICAS_vertices#0_COLOR_0"},{"bufferView":1,"byteOffset":139038,"componentType":5123,"count":6,"type":"SCALAR","name":"x3_SCREEN_EICAS_indices#0"},{"bufferView":0,"byteOffset":1220760,"componentType":5126,"count":4,"min":[-0.08587649464607239,-0.08515644073486328,-0.0253143310546875],"max":[0.08587646484375,0.08515644073486328,0.025312423706054689],"type":"VEC3","name":"x3_SCREEN_MFD_L_vertices#0_POSITION"},{"bufferView":0,"byteOffset":1220772,"componentType":5120,"count":4,"type":"VEC4","name":"x3_SCREEN_MFD_L_vertices#0_TANGENT"},{"bufferView":0,"byteOffset":1220776,"componentType":5120,"count":4,"type":"VEC4","name":"x3_SCREEN_MFD_L_vertices#0_NORMAL"},{"bufferView":0,"byteOffset":1220780,"componentType":5122,"count":4,"type":"VEC2","name":"x3_SCREEN_MFD_L_vertices#0_TEXCOORD_0"},{"bufferView":0,"byteOffset":1220784,"componentType":5122,"count":4,"type":"VEC2","name":"x3_SCREEN_MFD_L_vertices#0_TEXCOORD_1"},{"bufferView":0,"byteOffset":1220788,"componentType":5123,"count":4,"type":"VEC4","name":"x3_SCREEN_MFD_L_vertices#0_COLOR_0"},{"bufferView":1,"byteOffset":139050,"componentType":5123,"count":6,"type":"SCALAR","name":"x3_SCREEN_MFD_L_indices#0"},{"bufferView":0,"byteOffset":1220904,"componentType":5126,"count":4,"min":[-0.08587652444839478,-0.08515644073486328,-0.0253143310546875],"max":[0.08587652444839478,0.08515644073486328,0.025312423706054689],"type":"VEC3","name":"x3_SCREEN_MFD_R_vertices#0_POSITION"},{"bufferView":0,"byteOffset":1220916,"componentType":5120,"count":4,"type":"VEC4","name":"x3_SCREEN_MFD_R_vertices#0_TANGENT"},{"bufferView":0,"byteOffset":1220920,"componentType":5120,"count":4,"type":"VEC4","name":"x3_SCREEN_MFD_R_vertices#0_NORMAL"},{"bufferView":0,"byteOffset":1220924,"componentType":5122,"count":4,"type":"VEC2","name":"x3_SCREEN_MFD_R_vertices#0_TEXCOORD_0"},{"bufferView":0,"byteOffset":1220928,"componentType":5122,"count":4,"type":"VEC2","name":"x3_SCREEN_MFD_R_vertices#0_TEXCOORD_1"},{"bufferView":0,"byteOffset":1220932,"componentType":5123,"count":4,"type":"VEC4","name":"x3_SCREEN_MFD_R_vertices#0_COLOR_0"},{"bufferView":1,"byteOffset":139062,"componentType":5123,"count":6,"type":"SCALAR","name":"x3_SCREEN_MFD_R_indices#0"},{"bufferView":0,"byteOffset":1221048,"componentType":5126,"count":4,"min":[-0.08763313293457031,-0.08515644073486328,-0.0253143310546875],"max":[0.08763313293457031,0.08515644073486328,0.025312423706054689],"type":"VEC3","name":"x3_SCREEN_PFD_L_vertices#0_POSITION"},{"bufferView":0,"byteOffset":1221060,"componentType":5120,"count":4,"type":"VEC4","name":"x3_SCREEN_PFD_L_vertices#0_TANGENT"},{"bufferView":0,"byteOffset":1221064,"componentType":5120,"count":4,"type":"VEC4","name":"x3_SCREEN_PFD_L_vertices#0_NORMAL"},{"bufferView":0,"byteOffset":1221068,"componentType":5122,"count":4,"type":"VEC2","name":"x3_SCREEN_PFD_L_vertices#0_TEXCOORD_0"},{"bufferView":0,"byteOffset":1221072,"componentType":5122,"count":4,"type":"VEC2","name":"x3_SCREEN_PFD_L_vertices#0_TEXCOORD_1"},{"bufferView":0,"byteOffset":1221076,"componentType":5123,"count":4,"type":"VEC4","name":"x3_SCREEN_PFD_L_vertices#0_COLOR_0"},{"bufferView":1,"byteOffset":139074,"componentType":5123,"count":6,"type":"SCALAR","name":"x3_SCREEN_PFD_L_indices#0"},{"bufferView":0,"byteOffset":1221192,"componentType":5126,"count":4,"min":[-0.08763307332992554,-0.08515644073486328,-0.0253143310546875],"max":[0.08763319253921509,0.08515644073486328,0.025312423706054689],"type":"VEC3","name":"x3_SCREEN_PFD_R_vertices#0_POSITION"},{"bufferView":0,"byteOffset":1221204,"componentType":5120,"count":4,"type":"VEC4","name":"x3_SCREEN_PFD_R_vertices#0_TANGENT"},{"bufferView":0,"byteOffset":1221208,"componentType":5120,"count":4,"type":"VEC4","name":"x3_SCREEN_PFD_R_vertices#0_NORMAL"},{"bufferView":0,"byteOffset":1221212,"componentType":5122,"count":4,"type":"VEC2","name":"x3_SCREEN_PFD_R_vertices#0_TEXCOORD_0"},{"bufferView":0,"byteOffset":1221216,"componentType":5122,"count":4,"type":"VEC2","name":"x3_SCREEN_PFD_R_vertices#0_TEXCOORD_1"},{"bufferView":0,"byteOffset":1221220,"componentType":5123,"count":4,"type":"VEC4","name":"x3_SCREEN_PFD_R_vertices#0_COLOR_0"},{"bufferView":1,"byteOffset":139086,"componentType":5123,"count":6,"type":"SCALAR","name":"x3_SCREEN_PFD_R_indices#0"}],"asset":{"generator":"babylon.js glTF exporter for 3dsmax 2019 v1.0.7796.28030","version":"2.0","extensions":{"ASOBO_asset_optimized":{"BoundingBoxMax":[84.75947570800781,1109.786376953125,1.131492018699646],"BoundingBoxMin":[-84.75947570800781,-1.1472628116607667,-197.7205047607422],"MajorVersion":4,"MinorVersion":3,"UseCheckerboardMaterialForMissingTextures":true},"ASOBO_normal_map_convention":{"tangent_space_convention":"DirectX"}}},"bufferViews":[{"buffer":0,"byteLength":1221336,"byteStride":36,"target":34962,"name":"BufferViewVertexND"},{"buffer":0,"byteLength":139098,"byteOffset":1221336,"target":34963,"name":"BufferViewIndex"}],"extensionsRequired":["MSFT_texture_dds"],"materials":[{"name":"OCCLUDER","pbrMetallicRoughness":{"baseColorFactor":[1.0,1.0,1.0,0.309352517]},"extensions":{"ASOBO_material_environment_occluder":{}}},{"name":"Generic","occlusionTexture":{"index":1},"pbrMetallicRoughness":{"baseColorTexture":{"index":0},"metallicRoughnessTexture":{"index":1}}},{"name":"$FCU","pbrMetallicRoughness":{"metallicFactor":0.0}},{"name":"$COM","pbrMetallicRoughness":{"metallicFactor":0.0}},{"name":"$EICAS1","pbrMetallicRoughness":{"metallicFactor":0.0}},{"name":"$EICAS2","pbrMetallicRoughness":{"metallicFactor":0.0}},{"name":"$MFD","pbrMetallicRoughness":{"metallicFactor":0.0}},{"name":"$PFD","pbrMetallicRoughness":{"metallicFactor":0.0}}],"meshes":[{"primitives":[{"attributes":{"COLOR_0":5,"NORMAL":2,"POSITION":0,"TANGENT":1,"TEXCOORD_0":3,"TEXCOORD_1":4},"indices":6,"material":0,"mode":4,"extras":{"ASOBO_primitive":{"PrimitiveCount":94,"VertexType":"VTX","VertexVersion":2}}}],"name":"Occluder"},{"primitives":[{"attributes":{"COLOR_0":12,"NORMAL":9,"POSITION":7,"TANGENT":8,"TEXCOORD_0":10,"TEXCOORD_1":11},"indices":13,"material":1,"mode":4,"extras":{"ASOBO_primitive":{"PrimitiveCount":685,"VertexType":"VTX","VertexVersion":2}}}],"name":"x3_SeatBelt_L_Pilot_F"},{"primitives":[{"attributes":{"COLOR_0":19,"NORMAL":16,"POSITION":14,"TANGENT":15,"TEXCOORD_0":17,"TEXCOORD_1":18},"indices":20,"material":1,"mode":4,"extras":{"ASOBO_primitive":{"PrimitiveCount":637,"VertexType":"VTX","VertexVersion":2}}}],"name":"x3_SeatBelt_L_Pilot_M"},{"primitives":[{"attributes":{"COLOR_0":26,"NORMAL":23,"POSITION":21,"TANGENT":22,"TEXCOORD_0":24,"TEXCOORD_1":25},"indices":27,"material":1,"mode":4,"extras":{"ASOBO_primitive":{"PrimitiveCount":685,"VertexType":"VTX","VertexVersion":2}}}],"name":"x3_SeatBelt_R_Pilot_F"},{"primitives":[{"attributes":{"COLOR_0":33,"NORMAL":30,"POSITION":28,"TANGENT":29,"TEXCOORD_0":31,"TEXCOORD_1":32},"indices":34,"material":1,"mode":4,"extras":{"ASOBO_primitive":{"PrimitiveCount":637,"VertexType":"VTX","VertexVersion":2}}}],"name":"x3_SeatBelt_R_Pilot_M"},{"primitives":[{"attributes":{"COLOR_0":40,"NORMAL":37,"POSITION":35,"TANGENT":36,"TEXCOORD_0":38,"TEXCOORD_1":39},"indices":41,"material":1,"mode":4,"extras":{"ASOBO_primitive":{"PrimitiveCount":20385,"VertexType":"VTX","VertexVersion":2}}}],"name":"x3_COCKPIT"},{"primitives":[{"attributes":{"COLOR_0":47,"NORMAL":44,"POSITION":42,"TANGENT":43,"TEXCOORD_0":45,"TEXCOORD_1":46},"indices":48,"material":2,"mode":4,"extras":{"ASOBO_primitive":{"PrimitiveCount":44,"VertexType":"VTX","VertexVersion":2}}}],"name":"x3_SCREEN_AUTOPILOT"},{"primitives":[{"attributes":{"COLOR_0":54,"NORMAL":51,"POSITION":49,"TANGENT":50,"TEXCOORD_0":52,"TEXCOORD_1":53},"indices":55,"material":3,"mode":4,"extras":{"ASOBO_primitive":{"PrimitiveCount":2,"VertexType":"VTX","VertexVersion":2}}}],"name":"x3_SCREEN_COM_L"},{"primitives":[{"attributes":{"COLOR_0":61,"NORMAL":58,"POSITION":56,"TANGENT":57,"TEXCOORD_0":59,"TEXCOORD_1":60},"indices":62,"material":3,"mode":4,"extras":{"ASOBO_primitive":{"PrimitiveCount":2,"VertexType":"VTX","VertexVersion":2}}}],"name":"x3_SCREEN_COM_R"},{"primitives":[{"attributes":{"COLOR_0":68,"NORMAL":65,"POSITION":63,"TANGENT":64,"TEXCOORD_0":66,"TEXCOORD_1":67},"indices":69,"material":4,"mode":4,"extras":{"ASOBO_primitive":{"PrimitiveCount":2,"VertexType":"VTX","VertexVersion":2}}}],"name":"x3_SCREEN_EICAS"},{"primitives":[{"attributes":{"COLOR_0":75,"NORMAL":72,"POSITION":70,"TANGENT":71,"TEXCOORD_0":73,"TEXCOORD_1":74},"indices":76,"material":5,"mode":4,"extras":{"ASOBO_primitive":{"PrimitiveCount":2,"VertexType":"VTX","VertexVersion":2}}}],"name":"x3_SCREEN_EICAS"},{"primitives":[{"attributes":{"COLOR_0":82,"NORMAL":79,"POSITION":77,"TANGENT":78,"TEXCOORD_0":80,"TEXCOORD_1":81},"indices":83,"material":6,"mode":4,"extras":{"ASOBO_primitive":{"PrimitiveCount":2,"VertexType":"VTX","VertexVersion":2}}}],"name":"x3_SCREEN_MFD_L"},{"primitives":[{"attributes":{"COLOR_0":89,"NORMAL":86,"POSITION":84,"TANGENT":85,"TEXCOORD_0":87,"TEXCOORD_1":88},"indices":90,"material":6,"mode":4,"extras":{"ASOBO_primitive":{"PrimitiveCount":2,"VertexType":"VTX","VertexVersion":2}}}],"name":"x3_SCREEN_MFD_R"},{"primitives":[{"attributes":{"COLOR_0":96,"NORMAL":93,"POSITION":91,"TANGENT":92,"TEXCOORD_0":94,"TEXCOORD_1":95},"indices":97,"material":7,"mode":4,"extras":{"ASOBO_primitive":{"PrimitiveCount":2,"VertexType":"VTX","VertexVersion":2}}}],"name":"x3_SCREEN_PFD_L"},{"primitives":[{"attributes":{"COLOR_0":103,"NORMAL":100,"POSITION":98,"TANGENT":99,"TEXCOORD_0":101,"TEXCOORD_1":102},"indices":104,"material":7,"mode":4,"extras":{"ASOBO_primitive":{"PrimitiveCount":2,"VertexType":"VTX","VertexVersion":2}}}],"name":"x3_SCREEN_PFD_R"}],"nodes":[{"translation":[-0.0405575037,2.00158048,9.425807],"rotation":[0.7071068,0.0,0.0,0.7071067],"mesh":0,"extensions":{"ASOBO_unique_id":{"id":"Occluder_52695"}},"name":"Occluder"},{"rotation":[0.7071068,0.0,0.0,0.7071067],"scale":[0.01,0.01,0.01],"mesh":1,"extensions":{"ASOBO_unique_id":{"id":"x3_SeatBelt_L_Pilot_F_53108"}},"name":"SeatBelt_L_Pilot_F"},{"rotation":[0.7071068,0.0,0.0,0.7071067],"scale":[0.01,0.01,0.01],"mesh":2,"extensions":{"ASOBO_unique_id":{"id":"x3_SeatBelt_L_Pilot_M_53109"}},"name":"SeatBelt_L_Pilot_M"},{"rotation":[0.7071068,0.0,0.0,0.7071067],"scale":[0.01,0.01,0.01],"mesh":3,"extensions":{"ASOBO_unique_id":{"id":"x3_SeatBelt_R_Pilot_F_53111"}},"name":"SeatBelt_R_Pilot_F"},{"rotation":[0.7071068,0.0,0.0,0.7071067],"scale":[0.01,0.01,0.01],"mesh":4,"extensions":{"ASOBO_unique_id":{"id":"x3_SeatBelt_R_Pilot_M_53112"}},"name":"SeatBelt_R_Pilot_M"},{"translation":[0.0,2.01378536,11.8894129],"mesh":5,"extensions":{"ASOBO_unique_id":{"id":"x3_COCKPIT_53115"}},"name":"COCKPIT"},{"translation":[2.98023224e-8,1.92718291,11.312583],"rotation":[1.110223e-16,0.0,0.0,1.0],"mesh":6,"extensions":{"ASOBO_unique_id":{"id":"x3_SCREEN_AUTOPILOT_53119"}},"name":"SCREEN_AUTOPILOT"},{"translation":[0.196804911,1.3991282,11.8066893],"rotation":[1.110223e-16,0.0,0.0,1.0],"mesh":7,"extensions":{"ASOBO_unique_id":{"id":"x3_SCREEN_COM_L_53131"}},"name":"SCREEN_COM_L"},{"translation":[-0.204547018,1.39845681,11.8066893],"rotation":[1.110223e-16,0.0,0.0,1.0],"mesh":8,"extensions":{"ASOBO_unique_id":{"id":"x3_SCREEN_COM_R_53132"}},"name":"SCREEN_COM_R"},{"translation":[-0.0144314319,1.63840342,11.88757],"rotation":[1.110223e-16,0.0,0.0,1.0],"mesh":9,"extensions":{"ASOBO_unique_id":{"id":"x3_SCREEN_EICAS_53133"}},"name":"SCREEN_EICAS"},{"translation":[-0.0144308358,1.439754,11.8299551],"rotation":[1.110223e-16,0.0,0.0,1.0],"mesh":10,"extensions":{"ASOBO_unique_id":{"id":"x3_SCREEN_EICAS_53134"}},"name":"SCREEN_EICAS_1"},{"translation":[0.388202548,1.628627,11.8851309],"rotation":[1.110223e-16,0.0,0.0,1.0],"mesh":11,"extensions":{"ASOBO_unique_id":{"id":"x3_SCREEN_MFD_L_53135"}},"name":"SCREEN_MFD_L"},{"translation":[-0.388202548,1.628627,11.8851309],"rotation":[1.110223e-16,0.0,0.0,1.0],"mesh":12,"extensions":{"ASOBO_unique_id":{"id":"x3_SCREEN_MFD_R_53136"}},"name":"SCREEN_MFD_R"},{"translation":[0.6033671,1.628627,11.8851309],"rotation":[1.110223e-16,0.0,0.0,1.0],"mesh":13,"extensions":{"ASOBO_unique_id":{"id":"x3_SCREEN_PFD_L_53137"}},"name":"SCREEN_PFD_L"},{"translation":[-0.6033671,1.628627,11.8851309],"rotation":[1.110223e-16,0.0,0.0,1.0],"mesh":14,"extensions":{"ASOBO_unique_id":{"id":"x3_SCREEN_PFD_R_53138"}},"name":"SCREEN_PFD_R"},{"translation":[0.5676975,1.26269531,10.8251953],"extensions":{"ASOBO_unique_id":{"id":"PILOT_0_51716"}},"name":"PILOT_0"},{"translation":[-0.567698,1.262695,10.8251953],"extensions":{"ASOBO_unique_id":{"id":"PILOT_1_51718"}},"name":"PILOT_1"}],"scene":0,"scenes":[{"nodes":[0,1,2,3,4,5,6,7,8,9,10,11,12,13,14,15,16]}],"textures":[{"extensions":{"MSFT_texture_dds":{"source":0}}},{"extensions":{"MSFT_texture_dds":{"source":1}}}],"extensionsUsed":["ASOBO_normal_map_convention","ASOBO_unique_id","ASOBO_material_environment_occluder","MSFT_texture_dds","ASOBO_asset_optimized"],"buffers":[{"byteLength":1360434,"uri":"A320_NEO_INTERIOR_LOD03.bin"}],"images":[{"uri":"ATLAS_ALBD.PNG.DDS","extras":"ASOBO_image_converted_meta"},{"uri":"ATLAS_COMP.PNG.DDS","extras":"ASOBO_image_converted_meta"}]}
