{"accessors":[{"bufferView":0,"componentType":5126,"count":208,"min":[-1.5810353755950928,-5.3995350413060809e-9,-1.131492018699646],"max":[1.6621503829956055,2.9452853202819826,1.131492018699646],"type":"VEC3","name":"Occluder_vertices#0_POSITION"},{"bufferView":0,"byteOffset":12,"componentType":5120,"count":208,"type":"VEC4","name":"Occluder_vertices#0_TANGENT"},{"bufferView":0,"byteOffset":16,"componentType":5120,"count":208,"type":"VEC4","name":"Occluder_vertices#0_NORMAL"},{"bufferView":0,"byteOffset":20,"componentType":5122,"count":208,"type":"VEC2","name":"Occluder_vertices#0_TEXCOORD_0"},{"bufferView":0,"byteOffset":24,"componentType":5122,"count":208,"type":"VEC2","name":"Occluder_vertices#0_TEXCOORD_1"},{"bufferView":0,"byteOffset":28,"componentType":5123,"count":208,"type":"VEC4","name":"Occluder_vertices#0_COLOR_0"},{"bufferView":1,"componentType":5123,"count":282,"type":"SCALAR","name":"Occluder_indices#0"},{"bufferView":0,"byteOffset":7488,"componentType":5126,"count":6339,"min":[-1.41714608669281,-1.1214625835418702,-0.41487979888916018],"max":[1.677483081817627,1.131484031677246,2.4095706939697267],"type":"VEC3","name":"x4_COCKPIT_vertices#0_POSITION"},{"bufferView":0,"byteOffset":7500,"componentType":5120,"count":6339,"type":"VEC4","name":"x4_COCKPIT_vertices#0_TANGENT"},{"bufferView":0,"byteOffset":7504,"componentType":5120,"count":6339,"type":"VEC4","name":"x4_COCKPIT_vertices#0_NORMAL"},{"bufferView":0,"byteOffset":7508,"componentType":5122,"count":6339,"type":"VEC2","name":"x4_COCKPIT_vertices#0_TEXCOORD_0"},{"bufferView":0,"byteOffset":7512,"componentType":5122,"count":6339,"type":"VEC2","name":"x4_COCKPIT_vertices#0_TEXCOORD_1"},{"bufferView":0,"byteOffset":7516,"componentType":5123,"count":6339,"type":"VEC4","name":"x4_COCKPIT_vertices#0_COLOR_0"},{"bufferView":1,"byteOffset":564,"componentType":5123,"count":13212,"type":"SCALAR","name":"x4_COCKPIT_indices#0"}],"asset":{"generator":"babylon.js glTF exporter for 3dsmax 2019 v1.0.7796.28030","version":"2.0","extensions":{"ASOBO_asset_optimized":{"BoundingBoxMax":[1.677483081817627,2.9452853202819826,2.4095706939697267],"BoundingBoxMin":[-1.5810353755950928,-1.1214625835418702,-1.131492018699646],"MajorVersion":4,"MinorVersion":3,"UseCheckerboardMaterialForMissingTextures":true},"ASOBO_normal_map_convention":{"tangent_space_convention":"DirectX"}}},"bufferViews":[{"buffer":0,"byteLength":235692,"byteStride":36,"target":34962,"name":"BufferViewVertexND"},{"buffer":0,"byteLength":26988,"byteOffset":235692,"target":34963,"name":"BufferViewIndex"}],"extensionsRequired":["MSFT_texture_dds"],"materials":[{"name":"OCCLUDER","pbrMetallicRoughness":{"baseColorFactor":[1.0,1.0,1.0,0.309352517]},"extensions":{"ASOBO_material_environment_occluder":{}}},{"name":"Generic","occlusionTexture":{"index":1},"pbrMetallicRoughness":{"baseColorTexture":{"index":0},"metallicRoughnessTexture":{"index":1}}}],"meshes":[{"primitives":[{"attributes":{"COLOR_0":5,"NORMAL":2,"POSITION":0,"TANGENT":1,"TEXCOORD_0":3,"TEXCOORD_1":4},"indices":6,"material":0,"mode":4,"extras":{"ASOBO_primitive":{"PrimitiveCount":94,"VertexType":"VTX","VertexVersion":2}}}],"name":"Occluder"},{"primitives":[{"attributes":{"COLOR_0":12,"NORMAL":9,"POSITION":7,"TANGENT":8,"TEXCOORD_0":10,"TEXCOORD_1":11},"indices":13,"material":1,"mode":4,"extras":{"ASOBO_primitive":{"PrimitiveCount":4404,"VertexType":"VTX","VertexVersion":2}}}],"name":"x4_COCKPIT"}],"nodes":[{"translation":[-0.0405575037,2.00158048,9.425807],"rotation":[0.7071068,0.0,0.0,0.7071067],"mesh":0,"extensions":{"ASOBO_unique_id":{"id":"Occluder_52695"}},"name":"Occluder"},{"translation":[-0.151773214,1.98798513,9.892177],"mesh":1,"extensions":{"ASOBO_unique_id":{"id":"x4_COCKPIT_53116"}},"name":"COCKPIT"},{"translation":[0.5676975,1.26269531,10.8251953],"extensions":{"ASOBO_unique_id":{"id":"PILOT_0_51716"}},"name":"PILOT_0"},{"translation":[-0.567698,1.262695,10.8251953],"extensions":{"ASOBO_unique_id":{"id":"PILOT_1_51718"}},"name":"PILOT_1"}],"scene":0,"scenes":[{"nodes":[0,1,2,3]}],"textures":[{"extensions":{"MSFT_texture_dds":{"source":0}}},{"extensions":{"MSFT_texture_dds":{"source":1}}}],"extensionsUsed":["ASOBO_normal_map_convention","ASOBO_unique_id","ASOBO_material_environment_occluder","MSFT_texture_dds","ASOBO_asset_optimized"],"buffers":[{"byteLength":262680,"uri":"A320_NEO_INTERIOR_LOD04.bin"}],"images":[{"uri":"ATLAS_ALBD.PNG.DDS","extras":"ASOBO_image_converted_meta"},{"uri":"ATLAS_COMP.PNG.DDS","extras":"ASOBO_image_converted_meta"}]}
