{"accessors":[{"bufferView":0,"componentType":5126,"count":458,"min":[0.0],"max":[15.2333336],"type":"SCALAR","name":"accessorAnimationInput"},{"bufferView":1,"componentType":5126,"count":458,"type":"VEC3","name":"accessorAnimationPositions"},{"bufferView":0,"byteOffset":1832,"componentType":5126,"count":458,"min":[0.0],"max":[15.2333336],"type":"SCALAR","name":"accessorAnimationInput"},{"bufferView":2,"componentType":5126,"count":458,"type":"VEC4","name":"accessorAnimationRotations"},{"bufferView":0,"byteOffset":3664,"componentType":5126,"count":458,"min":[0.0],"max":[15.2333336],"type":"SCALAR","name":"accessorAnimationInput"},{"bufferView":1,"byteOffset":5496,"componentType":5126,"count":458,"type":"VEC3","name":"accessorAnimationScales"},{"bufferView":3,"componentType":5126,"count":170,"min":[-17.88606071472168,-2.2074570655822756,-24.051834106445314],"max":[17.88606071472168,9.499980926513672,13.545265197753907],"type":"VEC3","name":"x6_FUSELAGE_vertices#0_POSITION"},{"bufferView":3,"byteOffset":12,"componentType":5120,"count":170,"type":"VEC4","name":"x6_FUSELAGE_vertices#0_TANGENT"},{"bufferView":3,"byteOffset":16,"componentType":5120,"count":170,"type":"VEC4","name":"x6_FUSELAGE_vertices#0_NORMAL"},{"bufferView":3,"byteOffset":20,"componentType":5122,"count":170,"type":"VEC2","name":"x6_FUSELAGE_vertices#0_TEXCOORD_0"},{"bufferView":3,"byteOffset":24,"componentType":5122,"count":170,"type":"VEC2","name":"x6_FUSELAGE_vertices#0_TEXCOORD_1"},{"bufferView":3,"byteOffset":28,"componentType":5123,"count":170,"type":"VEC4","name":"x6_FUSELAGE_vertices#0_COLOR_0"},{"bufferView":4,"componentType":5123,"count":438,"type":"SCALAR","name":"x6_FUSELAGE_indices#0"}],"animations":[{"name":"All Animations","channels":[{"sampler":0,"target":{"node":0,"path":"translation"}},{"sampler":1,"target":{"node":0,"path":"rotation"}},{"sampler":2,"target":{"node":0,"path":"scale"}}],"samplers":[{"input":0,"output":1,"interpolation":"LINEAR"},{"input":2,"output":3,"interpolation":"LINEAR"},{"input":4,"output":5,"interpolation":"LINEAR"}]}],"asset":{"generator":"babylon.js glTF exporter for 3dsmax 2019 v1.0.7796.28030","version":"2.0","extensions":{"ASOBO_asset_optimized":{"BoundingBoxMax":[17.88606071472168,9.499980926513672,13.545265197753907],"BoundingBoxMin":[-17.88606071472168,-2.2074570655822756,-24.051834106445314],"MajorVersion":4,"MinorVersion":3,"UseCheckerboardMaterialForMissingTextures":true},"ASOBO_normal_map_convention":{"tangent_space_convention":"DirectX"}}},"bufferViews":[{"buffer":0,"byteLength":5496,"name":"bufferViewAnimationFloatScalar"},{"buffer":0,"byteLength":10992,"byteOffset":5496,"name":"bufferViewAnimationFloatVec3"},{"buffer":0,"byteLength":7328,"byteOffset":16488,"name":"bufferViewAnimationFloatVec4"},{"buffer":0,"byteLength":6120,"byteStride":36,"byteOffset":23816,"target":34962,"name":"BufferViewVertexND"},{"buffer":0,"byteLength":876,"byteOffset":29936,"target":34963,"name":"BufferViewIndex"}],"extensionsRequired":["MSFT_texture_dds"],"materials":[{"name":"Generic_LOD5","occlusionTexture":{"index":1},"pbrMetallicRoughness":{"baseColorTexture":{"index":0},"metallicRoughnessTexture":{"index":1}}}],"meshes":[{"primitives":[{"attributes":{"COLOR_0":11,"NORMAL":8,"POSITION":6,"TANGENT":7,"TEXCOORD_0":9,"TEXCOORD_1":10},"indices":12,"material":0,"mode":4,"extras":{"ASOBO_primitive":{"PrimitiveCount":146,"VertexType":"VTX","VertexVersion":2}}}],"name":"x6_FUSELAGE"}],"nodes":[{"extensions":{"ASOBO_unique_id":{"id":"A320:HIPS_8047"}},"name":"HIPS","children":[1]},{"mesh":0,"extensions":{"ASOBO_unique_id":{"id":"x6_FUSELAGE_19465"}},"name":"FUSELAGE"}],"scene":0,"scenes":[{"nodes":[0]}],"textures":[{"extensions":{"MSFT_texture_dds":{"source":0}}},{"extensions":{"MSFT_texture_dds":{"source":1}}}],"extensionsUsed":["ASOBO_normal_map_convention","ASOBO_unique_id","MSFT_texture_dds","ASOBO_asset_optimized"],"buffers":[{"byteLength":30812,"uri":"A320_NEO_LOD06.bin"}],"images":[{"uri":"A320NEO_AIRFRAME_LIVERY_FLIGHTSIM_ALBD.PNG.DDS","extras":"ASOBO_image_converted_meta"},{"uri":"A320NEO_AIRFRAME_LIVERY_FLIGHTSIM_COMP.PNG.DDS","extras":"ASOBO_image_converted_meta"}]}
